<?xml version="1.0" encoding="UTF-8"?>
<svg version="1.1" xmlns="http://www.w3.org/2000/svg" width="167" height="82">
<path d="M0 0 C3.29690743 5.90029064 6.46558208 11.7306504 9 18 C9.495 18.99 9.495 18.99 10 20 C11.07262018 30.37376941 11.07262018 30.37376941 8.0625 34.9375 C1.04008565 39.66688109 -6.02733354 42.92632836 -13.9765625 45.86328125 C-16.3754946 46.76520533 -18.67906223 47.73311191 -21 48.8125 C-23.9992727 49.99971211 -25.83422464 50.10160428 -29 50 C-32.81304097 24.09174841 -32.81304097 24.09174841 -30 15 C-29.34 15 -28.68 15 -28 15 C-27.7525 14.38125 -27.505 13.7625 -27.25 13.125 C-25.79371361 10.64931313 -24.62187494 10.04874998 -22 9 C-22 8.34 -22 7.68 -22 7 C-19.75157909 6.01706733 -17.50140453 5.03855534 -15.25 4.0625 C-14.61578125 3.78470703 -13.9815625 3.50691406 -13.328125 3.22070312 C-8.5648457 1.16157718 -5.180337 0 0 0 Z " fill="#196A2D" transform="translate(38,31)"/>
<path d="M0 0 C9.16764077 -0.3521 16.72910686 -0.13544657 25 4 C25.72159424 5.64363134 26.39351421 7.31050386 27 9 C28.32 8.34 29.64 7.68 31 7 C31 6.34 31 5.68 31 5 C40.35207071 -0.10328732 40.35207071 -0.10328732 45 0 C47.6875 2.1875 47.6875 2.1875 50 5 C50.598125 5.66 51.19625 6.32 51.8125 7 C53.40263769 9.67812663 53.67214122 10.93802332 53 14 C48.00290633 19.73196039 40.0962784 22.65514279 33 25 C32.01 24.67 31.02 24.34 30 24 C28.8125 20.4375 28.8125 20.4375 28 17 C27.34 20.3 26.68 23.6 26 27 C22.47869636 27.08133037 18.95929246 27.14066172 15.4375 27.1875 C14.44685547 27.21263672 13.45621094 27.23777344 12.43554688 27.26367188 C6.49671679 27.32286287 2.19160934 26.98953075 -3 24 C-5.54137165 20.18794252 -5.69768526 17.40286814 -5 13 C-3.54628241 8.57299938 -1.82866254 4.28429509 0 0 Z " fill="#193A1D" transform="translate(7,3)"/>
<path d="M0 0 C0.33 0.66 0.66 1.32 1 2 C1.33 1.34 1.66 0.68 2 0 C9.92 0 17.84 0 26 0 C26.495 1.98 26.495 1.98 27 4 C27.5259375 3.01 27.5259375 3.01 28.0625 2 C30 0 30 0 33.5625 -0.25 C34.696875 -0.1675 35.83125 -0.085 37 0 C39.08695188 0.0848311 39.08695188 0.0848311 41.375 -0.625 C44.36863138 -1.05266163 45.48828873 -0.58144783 48 1 C48.33 0.67 48.66 0.34 49 0 C50.64436757 -0.07250298 52.29167202 -0.08375172 53.9375 -0.0625 C54.83339844 -0.05347656 55.72929687 -0.04445312 56.65234375 -0.03515625 C57.81443359 -0.01775391 57.81443359 -0.01775391 59 0 C61.00698415 0.09578263 61.00698415 0.09578263 62.875 -0.5625 C65.2667793 -1.05492515 66.70012027 -0.73924706 69 0 C69 9.88461538 69 9.88461538 66.375 12.8125 C62.96538781 14.5173061 60.73102638 13.66195629 57 13 C53.66479829 12.89862609 50.33590004 12.94751206 47 13 C46.01 13 45.02 13 44 13 C43.175 13.20625 42.35 13.4125 41.5 13.625 C39 14 39 14 36 12 C33.35367713 12.3121764 33.35367713 12.3121764 31 13 C31 11.02 31 9.04 31 7 C30.01 8.98 29.02 10.96 28 13 C26.33388095 13.042721 24.66617115 13.04063832 23 13 C22.505 12.505 22.505 12.505 22 12 C20.32457024 12.28604898 18.65614657 12.61781233 17 13 C17.33 11.68 17.66 10.36 18 9 C16.68 9 15.36 9 14 9 C14 10.32 14 11.64 14 13 C12.91460937 12.98839844 11.82921875 12.97679687 10.7109375 12.96484375 C9.26562673 12.95545862 7.82031409 12.94635919 6.375 12.9375 C5.30572266 12.92493164 5.30572266 12.92493164 4.21484375 12.91210938 C0.89166409 12.89686543 -2.05226685 13.00985359 -5.3359375 13.62890625 C-8 14 -8 14 -11 12 C-10.80987077 2.78737436 -10.80987077 2.78737436 -7.75 -0.1875 C-4.65533506 -1.10183282 -3.02328766 -1.09174276 0 0 Z M-6 3 C-4.515 3.99 -4.515 3.99 -3 5 C-3 4.34 -3 3.68 -3 3 C-3.99 3 -4.98 3 -6 3 Z M5 3 C5 3.33 5 3.66 5 4 C6.65 4 8.3 4 10 4 C10.33 5.32 10.66 6.64 11 8 C11.33 6.35 11.66 4.7 12 3 C9.69 3 7.38 3 5 3 Z M15 3 C15 3.66 15 4.32 15 5 C16.32 4.67 17.64 4.34 19 4 C17.68 3.67 16.36 3.34 15 3 Z M41 3 C40.34 4.98 39.68 6.96 39 9 C40.32 9.33 41.64 9.66 43 10 C43.33 9.34 43.66 8.68 44 8 C46.0625 7.375 46.0625 7.375 48 7 C48 6.34 48 5.68 48 5 C47.01 5 46.02 5 45 5 C45 4.34 45 3.68 45 3 C43.68 3 42.36 3 41 3 Z M52 3 C52 3.33 52 3.66 52 4 C53.98 4 55.96 4 58 4 C58 5.32 58 6.64 58 8 C58.99 7.67 59.98 7.34 61 7 C60.34 7 59.68 7 59 7 C59 5.68 59 4.36 59 3 C56.69 3 54.38 3 52 3 Z M-8 8 C-8 8.66 -8 9.32 -8 10 C-6.68 9.67 -5.36 9.34 -4 9 C-5.32 8.67 -6.64 8.34 -8 8 Z M4 8 C4 8.66 4 9.32 4 10 C5.98 10 7.96 10 10 10 C10 9.34 10 8.68 10 8 C8.02 8 6.04 8 4 8 Z M51 8 C51 8.66 51 9.32 51 10 C52.98 10 54.96 10 57 10 C57 9.34 57 8.68 57 8 C55.02 8 53.04 8 51 8 Z M61 8 C61 8.66 61 9.32 61 10 C62.32 9.67 63.64 9.34 65 9 C63.68 8.67 62.36 8.34 61 8 Z " fill="#030304" transform="translate(93,51)"/>
<path d="M0 0 C0.66 0.66 1.32 1.32 2 2 C2.33 1.34 2.66 0.68 3 0 C4.32 0.33 5.64 0.66 7 1 C6.34 4.3 5.68 7.6 5 11 C6.32 10.67 7.64 10.34 9 10 C9.33 7.03 9.66 4.06 10 1 C14.05979772 0.01580661 17.82699392 -0.23183367 22 0 C22.99 0.66 23.98 1.32 25 2 C25 1.34 25 0.68 25 0 C26.258125 -0.04125 27.51625 -0.0825 28.8125 -0.125 C29.52019531 -0.14820313 30.22789063 -0.17140625 30.95703125 -0.1953125 C33 0 33 0 36 2 C36.99 1.34 37.98 0.68 39 0 C41.5 -0.3125 41.5 -0.3125 44 0 C45.8125 1.5 45.8125 1.5 47 3 C47.33 2.01 47.66 1.02 48 0 C55.26 0 62.52 0 70 0 C70 1.32 70 2.64 70 4 C68.68 4 67.36 4 66 4 C65.34 7.3 64.68 10.6 64 14 C62.68 14 61.36 14 60 14 C60.875 6.25 60.875 6.25 62 4 C61.01 4 60.02 4 59 4 C58.67 7.3 58.34 10.6 58 14 C56.35 14 54.7 14 53 14 C53.33 12.68 53.66 11.36 54 10 C52.68 10 51.36 10 50 10 C50 11.32 50 12.64 50 14 C48.68 14 47.36 14 46 14 C46 13.34 46 12.68 46 12 C45.34 12 44.68 12 44 12 C44 12.66 44 13.32 44 14 C41.03 14 38.06 14 35 14 C34.34 12.35 33.68 10.7 33 9 C31.02 9.33 29.04 9.66 27 10 C27 11.32 27 12.64 27 14 C25.35 14 23.7 14 22 14 C22 12.35 22 10.7 22 9 C21.67 9.33 21.34 9.66 21 10 C19.33382885 10.04063832 17.66611905 10.042721 16 10 C16 11.32 16 12.64 16 14 C15.195625 13.814375 14.39125 13.62875 13.5625 13.4375 C12.2940625 13.2209375 12.2940625 13.2209375 11 13 C10.67 13.33 10.34 13.66 10 14 C7.32461085 14.04315144 4.67305179 14.04680441 2 14 C0.33068803 14 -1.33875637 14.00593153 -3.0078125 14.03515625 C-5.00507614 14.06095117 -7.00282955 14.03221243 -9 14 C-10 13 -10 13 -10.01953125 10.8203125 C-9.95121094 9.93085937 -9.88289063 9.04140625 -9.8125 8.125 C-9.75707031 7.24070312 -9.70164062 6.35640625 -9.64453125 5.4453125 C-9 3 -9 3 -7.11328125 1.19921875 C-4.51636929 -0.27444478 -2.94250593 -0.38717183 0 0 Z M13 3 C14 5 14 5 14 5 Z M-5 4 C-4.67 4.66 -4.34 5.32 -4 6 C-3.34 6 -2.68 6 -2 6 C-2 5.34 -2 4.68 -2 4 C-2.99 4 -3.98 4 -5 4 Z M17 4 C17 4.66 17 5.32 17 6 C17.99 6 18.98 6 20 6 C20 5.34 20 4.68 20 4 C19.01 4 18.02 4 17 4 Z M28 4 C28 4.66 28 5.32 28 6 C28.99 6 29.98 6 31 6 C31 5.34 31 4.68 31 4 C30.01 4 29.02 4 28 4 Z M39 4 C38.34 5.98 37.68 7.96 37 10 C38.89179203 10.6814823 38.89179203 10.6814823 41 11 C43.28728734 9.16116119 43.28728734 9.16116119 43.125 6.375 C43.08375 5.59125 43.0425 4.8075 43 4 C41.68 4 40.36 4 39 4 Z M51 4 C51 4.66 51 5.32 51 6 C52.32 5.67 53.64 5.34 55 5 C53.68 4.67 52.36 4.34 51 4 Z M-7 9 C-7 9.66 -7 10.32 -7 11 C-5.68 10.67 -4.36 10.34 -3 10 C-4.32 9.67 -5.64 9.34 -7 9 Z " fill="#030304" transform="translate(92,34)"/>
<path d="M0 0 C2.375 1.5625 2.375 1.5625 4 3 C5.299375 1.9790625 5.299375 1.9790625 6.625 0.9375 C10 -1 10 -1 13.1875 -0.9375 C16.05336898 0.01778966 17.27986815 0.55560211 19 3 C19.6875 5.1875 19.6875 5.1875 20 7 C18.35 7 16.7 7 15 7 C14.67 6.34 14.34 5.68 14 5 C10.70924004 5.37904208 10.70924004 5.37904208 8 7 C7.76924918 8.34747084 7.58846937 9.70377565 7.4375 11.0625 C7.293125 12.361875 7.14875 13.66125 7 15 C8.65 15 10.3 15 12 15 C12.66 13.68 13.32 12.36 14 11 C16.475 11.495 16.475 11.495 19 12 C19.33 11.01 19.66 10.02 20 9 C20.66 9 21.32 9 22 9 C22.103125 8.443125 22.20625 7.88625 22.3125 7.3125 C23.16725519 4.43741436 24.15313009 2.37454703 26 0 C27.65 0 29.3 0 31 0 C31.66 4.29 32.32 8.58 33 13 C34.52475697 8.42572908 35.4351418 4.70715168 36 0 C37.65 0 39.3 0 41 0 C40.85795259 1.58367747 40.71119847 3.16693318 40.5625 4.75 C40.48128906 5.63171875 40.40007812 6.5134375 40.31640625 7.421875 C40.03761535 9.69350452 39.61209423 11.79851823 39 14 C41.31 14.33 43.62 14.66 46 15 C46 16.32 46 17.64 46 19 C40.06 19 34.12 19 28 19 C28 17.35 28 15.7 28 14 C25.55519921 14.18828772 25.55519921 14.18828772 23 15 C21.63979849 16.96758273 21.63979849 16.96758273 21 19 C19.35 19 17.7 19 16 19 C16 18.34 16 17.68 16 17 C15.34 17 14.68 17 14 17 C14 17.66 14 18.32 14 19 C12.37536158 19.05395478 10.75021459 19.09277195 9.125 19.125 C7.76761719 19.15980469 7.76761719 19.15980469 6.3828125 19.1953125 C4 19 4 19 2 17 C1.8046875 14.6171875 1.8046875 14.6171875 1.875 11.875 C1.89304687 10.96492188 1.91109375 10.05484375 1.9296875 9.1171875 C1.96449219 8.06917969 1.96449219 8.06917969 2 7 C1.01 7.495 1.01 7.495 0 8 C0.33 8.33 0.66 8.66 1 9 C1.46734854 15.30920535 1.46734854 15.30920535 -0.16015625 17.71484375 C-2.73307788 19.51206502 -4.58457433 19.29701502 -7.6875 19.1875 C-9.17830078 19.14689453 -9.17830078 19.14689453 -10.69921875 19.10546875 C-11.45847656 19.07066406 -12.21773438 19.03585938 -13 19 C-14.35439668 16.29120665 -14.06501451 13.99066732 -14 11 C-13.01 10.67 -12.02 10.34 -11 10 C-11.33 9.67 -11.66 9.34 -12 9 C-11.875 5.625 -11.875 5.625 -11 2 C-7.3340988 -1.35168109 -4.65726082 -1.38726918 0 0 Z M-6 4 C-6.33 4.99 -6.66 5.98 -7 7 C-5.35 7 -3.7 7 -2 7 C-2.33 6.01 -2.66 5.02 -3 4 C-3.99 4 -4.98 4 -6 4 Z M26 8 C27 10 27 10 27 10 Z M-9 11 C-9 12.32 -9 13.64 -9 15 C-7.35 15 -5.7 15 -4 15 C-4 14.01 -4 13.02 -4 12 C-5.65 11.67 -7.3 11.34 -9 11 Z M16 15 C17 17 17 17 17 17 Z " fill="#030304" transform="translate(116,13)"/>
<path d="M0 0 C0 0.66 0 1.32 0 2 C1.32 2.66 2.64 3.32 4 4 C4 4.66 4 5.32 4 6 C4.66 6 5.32 6 6 6 C7.40234375 7.64453125 7.40234375 7.64453125 8.9375 9.8125 C10.43605243 11.91660558 11.7984398 13.81240471 13.69140625 15.57421875 C15 17 15 17 15 20 C-0.29457056 27.83906673 -0.29457056 27.83906673 -8 27 C-14.99965334 23.62979654 -18.15917761 18.04679226 -21.36328125 11.28125 C-22.18458124 8.33867824 -22.16527464 6.8392009 -21 4 C-14.3574906 -0.03817752 -7.55152936 -1.92489964 0 0 Z " fill="#040605" transform="translate(62,24)"/>
<path d="M0 0 C2.37890625 0.93359375 2.37890625 0.93359375 3.7421875 2.75390625 C5.74755389 7.62290284 7.18637139 11.58413722 6.37890625 16.93359375 C2.41585756 25.76038401 -7.72155366 29.10501679 -16.05859375 32.80859375 C-17.10611816 33.27446899 -17.10611816 33.27446899 -18.17480469 33.74975586 C-21.14898014 35.0307664 -23.34865843 35.93359375 -26.62109375 35.93359375 C-27.52459449 26.59741939 -24.26606722 21.49322349 -18.53515625 14.32421875 C-6.03225136 -0.15282902 -6.03225136 -0.15282902 0 0 Z " fill="#050707" transform="translate(37.62109375,42.06640625)"/>
<path d="M0 0 C1.703125 1.671875 1.703125 1.671875 3.25 3.75 C3.77078125 4.42546875 4.2915625 5.1009375 4.828125 5.796875 C6.23600447 8.4436884 6.3777134 10.041245 6 13 C1.00290633 18.73196039 -6.9037216 21.65514279 -14 24 C-14.99 23.67 -15.98 23.34 -17 23 C-18.01953125 20.453125 -18.01953125 20.453125 -18.8125 17.25 C-19.08707031 16.20328125 -19.36164062 15.1565625 -19.64453125 14.078125 C-20.03587702 10.68932863 -19.52927105 9.00293224 -18 6 C-17.34 6 -16.68 6 -16 6 C-16 5.34 -16 4.68 -16 4 C-14.75264433 3.3490741 -13.50198168 2.70448331 -12.25 2.0625 C-11.55390625 1.70285156 -10.8578125 1.34320313 -10.140625 0.97265625 C-6.49947954 -0.68180583 -3.8244363 -1.56037001 0 0 Z " fill="#268D32" transform="translate(54,4)"/>
<path d="M0 0 C0 0.66 0 1.32 0 2 C1.32 2.66 2.64 3.32 4 4 C4 4.66 4 5.32 4 6 C4.66 6 5.32 6 6 6 C7.40234375 7.609375 7.40234375 7.609375 8.9375 9.75 C9.44152344 10.44609375 9.94554688 11.1421875 10.46484375 11.859375 C10.97144531 12.56578125 11.47804687 13.2721875 12 14 C12.99705016 15.33554063 13.9961686 16.66954883 15 18 C13.1875 19.0625 13.1875 19.0625 11 20 C10.01 19.67 9.02 19.34 8 19 C8.66 18.34 9.32 17.68 10 17 C6.535 12.545 6.535 12.545 3 8 C-2.48389728 8.43871178 -5.56436358 9.80221561 -10 13 C-10.66 13 -11.32 13 -12 13 C-12.93786082 18.05009595 -12.93786082 18.05009595 -12 23 C-16.2023417 21.50766515 -17.37643507 19.08365052 -19.3125 15.1875 C-19.84488281 14.14980469 -20.37726562 13.11210938 -20.92578125 12.04296875 C-22.11214687 8.68231851 -22.48253447 7.24719303 -21 4 C-14.3574906 -0.03817752 -7.55152936 -1.92489964 0 0 Z " fill="#269D36" transform="translate(62,24)"/>
<path d="M0 0 C0.66 0 1.32 0 2 0 C1.61204882 2.7932485 1.36207201 4.57758265 -0.5 6.75 C-2.80501363 10.20752044 -2.74746865 13.92466647 -3 18 C-2.34 18 -1.68 18 -1 18 C0.1875 20.125 0.1875 20.125 1 23 C0.03685937 25.01800895 -0.96958573 27.01549844 -2 29 C-2.41515188 31.30035482 -2.41515188 31.30035482 -2.60546875 33.703125 C-2.6830542 34.50911133 -2.76063965 35.31509766 -2.84057617 36.14550781 C-2.89318604 36.75749023 -2.9457959 37.36947266 -3 38 C0.69351307 36.45145644 4.37856859 34.88368672 8.0625 33.3125 C9.10083984 32.87744141 10.13917969 32.44238281 11.20898438 31.99414062 C21.5632646 27.7261981 21.5632646 27.7261981 28.9375 19.6875 C29.4634375 18.3571875 29.4634375 18.3571875 30 17 C30.33 17 30.66 17 31 17 C31.25 22.625 31.25 22.625 29 26 C28.34 26 27.68 26 27 26 C26.92813477 26.61278809 26.85626953 27.22557617 26.78222656 27.85693359 C26 30 26 30 24.03808594 31.24853516 C23.19536133 31.59190918 22.35263672 31.9352832 21.484375 32.2890625 C20.56269531 32.67320313 19.64101563 33.05734375 18.69140625 33.453125 C17.72074219 33.83984375 16.75007813 34.2265625 15.75 34.625 C14.31720703 35.21667969 14.31720703 35.21667969 12.85546875 35.8203125 C10.24292446 36.89585229 7.62393006 37.95259822 5 39 C3.69337402 39.55373291 3.69337402 39.55373291 2.36035156 40.11865234 C-0.2432325 41.09082223 -2.24371747 41.15750186 -5 41 C-8.81304097 15.09174841 -8.81304097 15.09174841 -6 6 C-5.34 6 -4.68 6 -4 6 C-3.71125 5.38125 -3.4225 4.7625 -3.125 4.125 C-2 2 -2 2 0 0 Z " fill="#34A43D" transform="translate(14,40)"/>
<path d="M0 0 C0.74886475 0.00523682 1.49772949 0.01047363 2.26928711 0.01586914 C3.07817383 0.0190918 3.88706055 0.02231445 4.72045898 0.02563477 C5.5705957 0.03401367 6.42073242 0.04239258 7.29663086 0.05102539 C8.15063477 0.05553711 9.00463867 0.06004883 9.88452148 0.06469727 C12.00108749 0.07652166 14.11761771 0.0944577 16.23413086 0.11352539 C16.37862201 4.88775372 15.97679696 8.94280528 14.73413086 13.55102539 C14.45569336 14.60161133 14.17725586 15.65219727 13.89038086 16.73461914 C13.67381836 17.5196582 13.45725586 18.30469727 13.23413086 19.11352539 C11.58413086 19.11352539 9.93413086 19.11352539 8.23413086 19.11352539 C8.89413086 14.49352539 9.55413086 9.87352539 10.23413086 5.11352539 C7.26413086 5.11352539 4.29413086 5.11352539 1.23413086 5.11352539 C1.23413086 5.77352539 1.23413086 6.43352539 1.23413086 7.11352539 C3.87413086 7.11352539 6.51413086 7.11352539 9.23413086 7.11352539 C8.90413086 8.43352539 8.57413086 9.75352539 8.23413086 11.11352539 C5.59413086 11.11352539 2.95413086 11.11352539 0.23413086 11.11352539 C-0.09586914 13.42352539 -0.42586914 15.73352539 -0.76586914 18.11352539 C-2.41586914 18.44352539 -4.06586914 18.77352539 -5.76586914 19.11352539 C-3.66834779 0.23583323 -3.66834779 0.23583323 0 0 Z " fill="#030304" transform="translate(86.765869140625,12.886474609375)"/>
<path d="M0 0 C8.7324633 -0.16476346 8.7324633 -0.16476346 12.3125 3.125 C13.199375 4.07375 14.08625 5.0225 15 6 C15.5465625 6.51820312 16.093125 7.03640625 16.65625 7.5703125 C19.98671791 10.94790967 21.38259036 13.10243777 21.375 17.9375 C21.27987996 19.29409299 21.16528674 20.65015829 21 22 C16.02874133 22.87215064 16.02874133 22.87215064 13 22 C9.40240602 18.34673726 6.83263451 14.08770858 4.9375 9.3359375 C3.77398787 6.43685311 1.95710719 4.41376553 0 2 C0 1.34 0 0.68 0 0 Z " fill="#D8EAD6" transform="translate(11,5)"/>
<path d="M0 0 C3.29690743 5.90029064 6.46558208 11.7306504 9 18 C9.33 18.66 9.66 19.32 10 20 C11.08334205 30.47746523 11.08334205 30.47746523 7.6875 35.25 C5 37 5 37 2 37 C2.680625 36.401875 3.36125 35.80375 4.0625 35.1875 C6.51627657 31.15064177 6.40648323 28.92984483 5.828125 24.328125 C4.42547413 18.69105641 1.96995571 13.5461184 -0.50390625 8.30859375 C-2 5 -2 5 -2 3 C-4.77251499 4.12099525 -7.54299943 5.24660203 -10.3125 6.375 C-11.09818359 6.69210938 -11.88386719 7.00921875 -12.69335938 7.3359375 C-13.45068359 7.6453125 -14.20800781 7.9546875 -14.98828125 8.2734375 C-15.68477783 8.55622559 -16.38127441 8.83901367 -17.09887695 9.13037109 C-19.25655576 10.05669572 -19.25655576 10.05669572 -22 12 C-22 10.35 -22 8.7 -22 7 C-19.75157909 6.01706733 -17.50140453 5.03855534 -15.25 4.0625 C-14.61578125 3.78470703 -13.9815625 3.50691406 -13.328125 3.22070312 C-8.5648457 1.16157718 -5.180337 0 0 0 Z " fill="#2AA33A" transform="translate(38,31)"/>
<path d="M0 0 C0.99 0 1.98 0 3 0 C6.31464103 3.32327291 8.8816959 7.33881835 10.625 11.6875 C12.00994097 15.0239487 13.7131394 17.23999583 16 20 C16 20.66 16 21.32 16 22 C18.31 22 20.62 22 23 22 C23 22.33 23 22.66 23 23 C20.70839681 23.02692484 18.41670454 23.04636124 16.125 23.0625 C14.84882813 23.07410156 13.57265625 23.08570312 12.2578125 23.09765625 C9 23 9 23 7 22 C7 21.34 7 20.68 7 20 C6.01 19.67 5.02 19.34 4 19 C0.19134798 14.00047368 -1.76192318 9.34935983 -1 3 C-0.67 2.01 -0.34 1.02 0 0 Z " fill="#66B466" transform="translate(8,5)"/>
<path d="M0 0 C2.11580849 2.11580849 2.97737003 3.3211008 3.078125 6.34375 C1.37390913 10.54254272 -2.04119061 11.78857438 -5.9375 13.8125 C-6.67935547 14.21919922 -7.42121094 14.62589844 -8.18554688 15.04492188 C-13.66361607 18 -13.66361607 18 -16 18 C-15.51827511 12.94188864 -14.25942114 9.91130537 -11 6 C-3.30136986 0 -3.30136986 0 0 0 Z " fill="#050907" transform="translate(54,8)"/>
<path d="M0 0 C0.66 0 1.32 0 2 0 C1.61204882 2.7932485 1.36207201 4.57758265 -0.5 6.75 C-2.80501363 10.20752044 -2.74746865 13.92466647 -3 18 C-2.34 18 -1.68 18 -1 18 C0.25 20.0625 0.25 20.0625 1 23 C-0.04578173 25.60906369 -1.42644314 27.63966471 -3 30 C-3.33 30 -3.66 30 -4 30 C-8.27058824 13.09558824 -8.27058824 13.09558824 -6 6 C-5.34 6 -4.68 6 -4 6 C-3.71125 5.38125 -3.4225 4.7625 -3.125 4.125 C-2 2 -2 2 0 0 Z " fill="#B0D3AD" transform="translate(14,40)"/>
<path d="M0 0 C2.875 2.5625 2.875 2.5625 5 5 C4.40832031 5.18175781 3.81664063 5.36351562 3.20703125 5.55078125 C-1.212508 6.95667057 -5.12540125 8.37527181 -9 11 C-9.33 10.01 -9.66 9.02 -10 8 C-10.99 7.67 -11.98 7.34 -13 7 C-13 6.01 -13 5.02 -13 4 C-14.32 4.33 -15.64 4.66 -17 5 C-15.32734171 1.65468342 -11.94149229 1.05083611 -8.5703125 -0.2265625 C-5.22350684 -1.233656 -3.2645597 -1.29063988 0 0 Z " fill="#14642D" transform="translate(60,26)"/>
<path d="M0 0 C0.0825 0.61875 0.165 1.2375 0.25 1.875 C0.78035516 4.16150356 0.78035516 4.16150356 2.875 4.9375 C5.76512969 6.38256485 6.60381152 8.13781361 8 11 C8 11.99 8 12.98 8 14 C8.99 14.33 9.98 14.66 11 15 C11.33 16.32 11.66 17.64 12 19 C15.96 19 19.92 19 24 19 C24 19.33 24 19.66 24 20 C21.70839681 20.02692484 19.41670454 20.04636124 17.125 20.0625 C15.84882813 20.07410156 14.57265625 20.08570312 13.2578125 20.09765625 C10 20 10 20 8 19 C8 18.34 8 17.68 8 17 C7.01 16.67 6.02 16.34 5 16 C1.11928275 10.90587538 -0.67584035 6.3528993 0 0 Z " fill="#4A8F4D" transform="translate(7,8)"/>
<path d="M0 0 C2.3976009 2.19780083 3.85918974 3.81191339 4.25 7.109375 C4.25 9.07468422 4.13293614 11.03919193 4 13 C3.01 13 2.02 13 1 13 C1.20625 12.2575 1.4125 11.515 1.625 10.75 C2.04408751 7.67669159 1.61949011 6.57213134 0 4 C-3.465 5.485 -3.465 5.485 -7 7 C-7.33 6.01 -7.66 5.02 -8 4 C-9.98 4 -11.96 4 -14 4 C-10.12487517 0.72104822 -4.99990581 -2.49995291 0 0 Z " fill="#1D6D2D" transform="translate(54,4)"/>
<path d="M0 0 C1.65 0 3.3 0 5 0 C5.33 0.99 5.66 1.98 6 3 C7.49985609 4.66710346 7.49985609 4.66710346 9 6 C8.649375 6.515625 8.29875 7.03125 7.9375 7.5625 C6.6384359 10.94006667 7.32782319 13.50468057 8 17 C4.50126729 15.60344703 3.29108169 14.28739516 1.75 10.875 C1.41484375 10.15054688 1.0796875 9.42609375 0.734375 8.6796875 C0.37085938 7.84824219 0.37085938 7.84824219 0 7 C0.66 7 1.32 7 2 7 C1.34 4.69 0.68 2.38 0 0 Z " fill="#1C8D34" transform="translate(42,30)"/>
<path d="M0 0 C2.64 0 5.28 0 8 0 C8.33 1.32 8.66 2.64 9 4 C7.8553125 4.8353125 7.8553125 4.8353125 6.6875 5.6875 C4.03859112 7.96679369 2.61711178 9.93599872 1 13 C0.34 12.67 -0.32 12.34 -1 12 C-1.02698189 10.37509046 -1.04638757 8.75005367 -1.0625 7.125 C-1.07410156 6.22007813 -1.08570313 5.31515625 -1.09765625 4.3828125 C-1 2 -1 2 0 0 Z " fill="#2B9F3A" transform="translate(38,8)"/>
<path d="M0 0 C3.41698625 1.44071606 5.31958785 3.23230565 7.6875 6.0625 C8.28949219 6.77535156 8.89148438 7.48820312 9.51171875 8.22265625 C10.24841797 9.10244141 10.24841797 9.10244141 11 10 C11.33 10.33 11.66 10.66 12 11 C12.04092937 13.33297433 12.04241723 15.66705225 12 18 C11.01 18 10.02 18 9 18 C8.938125 17.443125 8.87625 16.88625 8.8125 16.3125 C8.10329952 13.76072076 8.10329952 13.76072076 5.625 11.625 C2.88272365 8.88272365 1.47297973 6.56616144 0 3 C0 2.01 0 1.02 0 0 Z " fill="#D8EBD6" transform="translate(19,9)"/>
<path d="M0 0 C0 0.66 0 1.32 0 2 C-15.67230043 10.03266809 -15.67230043 10.03266809 -23 9 C-24.7734375 7.49609375 -24.7734375 7.49609375 -26 6 C-24 5 -24 5 -20.25 5.125 C-16.10457887 5.18464635 -13.66265445 3.98393783 -10 2 C-6.73333603 0.98684294 -3.43960502 0 0 0 Z " fill="#103817" transform="translate(77,42)"/>
<path d="M0 0 C-3.55248938 2.96951676 -7.44260955 4.73411083 -11.625 6.625 C-12.97139527 7.24209783 -14.31775123 7.85928144 -15.6640625 8.4765625 C-17.31535156 9.23066406 -17.31535156 9.23066406 -19 10 C-19.99 10.495 -19.99 10.495 -21 11 C-21 9.35 -21 7.7 -21 6 C-18.75157909 5.01706733 -16.50140453 4.03855534 -14.25 3.0625 C-13.61578125 2.78470703 -12.9815625 2.50691406 -12.328125 2.22070312 C-4.06026786 -1.35342262 -4.06026786 -1.35342262 0 0 Z " fill="#32A637" transform="translate(37,32)"/>
<path d="M0 0 C2.875 2.5625 2.875 2.5625 5 5 C3.54536519 5.38909985 2.08608793 5.76088029 0.625 6.125 C-0.18710937 6.33382812 -0.99921875 6.54265625 -1.8359375 6.7578125 C-2.55007812 6.83773437 -3.26421875 6.91765625 -4 7 C-4.66 6.34 -5.32 5.68 -6 5 C-6 3.68 -6 2.36 -6 1 C-6.66 0.67 -7.32 0.34 -8 0 C-4.99054157 -1.50472922 -3.20590237 -0.88005163 0 0 Z M-10 1 C-8 2 -8 2 -8 2 Z " fill="#18431F" transform="translate(60,26)"/>
<path d="M0 0 C3.79379058 1.49041773 5.68343758 3.69062512 8 7 C8 7.66 8 8.32 8 9 C8.99 9.33 9.98 9.66 11 10 C11 11.32 11 12.64 11 14 C9.68 14 8.36 14 7 14 C5.078125 11.953125 5.078125 11.953125 3.25 9.25 C2.63640625 8.36828125 2.0228125 7.4865625 1.390625 6.578125 C0 4 0 4 0 0 Z " fill="#B3D8B1" transform="translate(17,13)"/>
<path d="M0 0 C0.2784375 0.56332031 0.556875 1.12664063 0.84375 1.70703125 C2.0275304 4.05459575 3.24691794 6.37617486 4.5 8.6875 C5.13421875 9.86892578 5.13421875 9.86892578 5.78125 11.07421875 C6.85955778 13.14504385 6.85955778 13.14504385 9 14 C9 14.66 9 15.32 9 16 C6.25729109 15.92163689 4.54241086 15.53068306 2.5546875 13.5859375 C0.20169234 10.53376664 -0.93474354 8.57643206 -1.375 4.6875 C-1 2 -1 2 0 0 Z " fill="#366937" transform="translate(6,11)"/>
<path d="M0 0 C4.56146063 0.54303103 8.03644997 1.65790225 12 4 C14.29013653 7.4352048 14.17842973 8.985331 14 13 C13.29875 12.278125 12.5975 11.55625 11.875 10.8125 C9.91006927 8.83067874 7.86821544 7.05292847 5.6875 5.3125 C4.800625 4.549375 3.91375 3.78625 3 3 C3 2.34 3 1.68 3 1 C2.01 0.67 1.02 0.34 0 0 Z " fill="#219236" transform="translate(18,5)"/>
<path d="M0 0 C0.66 0 1.32 0 2 0 C2 0.66 2 1.32 2 2 C2.66 2 3.32 2 4 2 C5.40234375 3.609375 5.40234375 3.609375 6.9375 5.75 C7.69353516 6.79414062 7.69353516 6.79414062 8.46484375 7.859375 C8.97144531 8.56578125 9.47804688 9.2721875 10 10 C10.99705016 11.33554063 11.9961686 12.66954883 13 14 C11.1875 15.0625 11.1875 15.0625 9 16 C8.01 15.67 7.02 15.34 6 15 C6.66 14.34 7.32 13.68 8 13 C7.4225 12.22914062 6.845 11.45828125 6.25 10.6640625 C5.5075 9.66117188 4.765 8.65828125 4 7.625 C3.2575 6.62726562 2.515 5.62953125 1.75 4.6015625 C0 2 0 2 0 0 Z " fill="#249133" transform="translate(64,28)"/>
<path d="M0 0 C0.66 0 1.32 0 2 0 C1.53198701 4.99213851 -0.91715737 9.12963993 -4 13 C-4.66 13 -5.32 13 -6 13 C-6 10.69 -6 8.38 -6 6 C-5.34 6 -4.68 6 -4 6 C-3.71125 5.38125 -3.4225 4.7625 -3.125 4.125 C-2 2 -2 2 0 0 Z " fill="#F1F7F0" transform="translate(14,40)"/>
<path d="M0 0 C4.66665414 2.33332707 8.42014021 5.43964179 11 10 C11.47411256 13.07439998 11.37720956 15.91945524 11 19 C10.67 19 10.34 19 10 19 C9.979375 17.989375 9.95875 16.97875 9.9375 15.9375 C9.34613149 11.50223617 6.85543228 9.54870697 3.65625 6.64453125 C1.64311626 4.64564138 0.74327387 2.72533754 0 0 Z " fill="#83BF81" transform="translate(21,8)"/>
<path d="M0 0 C0.66 0 1.32 0 2 0 C3.03572896 1.74122549 4.0531252 3.49336595 5.0625 5.25 C5.63097656 6.22453125 6.19945312 7.1990625 6.78515625 8.203125 C8 11 8 11 7.68359375 13.359375 C7.45800781 13.90078125 7.23242188 14.4421875 7 15 C6.67 14.01 6.34 13.02 6 12 C5.01 12 4.02 12 3 12 C2.30314502 10.3789897 1.61777139 8.75303934 0.9375 7.125 C0.55464844 6.22007813 0.17179687 5.31515625 -0.22265625 4.3828125 C-1 2 -1 2 0 0 Z " fill="#259F36" transform="translate(36,31)"/>
<path d="M0 0 C3 1 3 1 4.6875 3.8125 C6.76949627 8.99580323 6.24310673 14.51659261 6 20 C5.67 20 5.34 20 5 20 C4.80664062 19.10796875 4.61328125 18.2159375 4.4140625 17.296875 C4.15367188 16.12640625 3.89328125 14.9559375 3.625 13.75 C3.36976562 12.58984375 3.11453125 11.4296875 2.8515625 10.234375 C2.13650571 7.51847122 1.25738467 5.47103423 0 3 C0 2.01 0 1.02 0 0 Z " fill="#45A844" transform="translate(40,42)"/>
<path d="M0 0 C0.33 0 0.66 0 1 0 C1.48322148 5.31543624 1.48322148 5.31543624 -0.5 8.125 C-3.74157831 10.55618373 -7.13875372 12.70763215 -11 14 C-11.99 13.67 -12.98 13.34 -14 13 C-12.86111328 12.34644531 -12.86111328 12.34644531 -11.69921875 11.6796875 C-4.10623085 7.32290746 -4.10623085 7.32290746 0 0 Z " fill="#9BC499" transform="translate(44,57)"/>
<path d="M0 0 C0.66 0.33 1.32 0.66 2 1 C-2.9679287 6.61046838 -10.88921522 7.35356502 -18 8 C-15.09534925 5.58618144 -12.63875755 4.40820514 -9 3.4375 C-6.42075131 2.74157467 -4.17943156 2.09452198 -1.8125 0.84765625 C-1.214375 0.56792969 -0.61625 0.28820312 0 0 Z " fill="#55B05E" transform="translate(39,67)"/>
<path d="M0 0 C1.14626322 0.97866338 2.29199788 1.95794587 3.4375 2.9375 C4.07558594 3.48277344 4.71367187 4.02804688 5.37109375 4.58984375 C6.26991149 5.36795695 7.15936528 6.15936528 8 7 C8.04063832 8.66617115 8.042721 10.33388095 8 12 C7.01 12 6.02 12 5 12 C4.87625 11.360625 4.7525 10.72125 4.625 10.0625 C4.41875 9.381875 4.2125 8.70125 4 8 C3.34 7.67 2.68 7.34 2 7 C1.26924352 4.6859378 0.59861742 2.35171131 0 0 Z " fill="#E4F0E3" transform="translate(23,15)"/>
<path d="M0 0 C0.66 0 1.32 0 2 0 C3.54296875 1.609375 3.54296875 1.609375 5.1875 3.75 C5.73792969 4.44609375 6.28835937 5.1421875 6.85546875 5.859375 C8 8 8 8 7.67578125 10.265625 C7.45277344 10.83796875 7.22976562 11.4103125 7 12 C5.5 10.625 5.5 10.625 4 9 C4 8.34 4 7.68 4 7 C3.34 7 2.68 7 2 7 C0 4 0 4 0 0 Z " fill="#86C383" transform="translate(9,5)"/>
<path d="M0 0 C2 2 2 2 2.5 4.3125 C2 7 2 7 -0.75 9.875 C-4 12 -4 12 -6.375 11.8125 C-6.91125 11.544375 -7.4475 11.27625 -8 11 C-5.82575883 8.49962266 -4.26954202 7.56371414 -1 7 C-0.67 4.69 -0.34 2.38 0 0 Z " fill="#279C35" transform="translate(58,10)"/>
<path d="M0 0 C0.33 0.99 0.66 1.98 1 3 C0.113125 2.690625 -0.77375 2.38125 -1.6875 2.0625 C-7.30877947 0.42489586 -13.18552198 0.33225589 -19 0 C-19 -0.33 -19 -0.66 -19 -1 C-12.13252891 -2.10765663 -6.73281213 -1.700773 0 0 Z " fill="#1F4424" transform="translate(28,5)"/>
<path d="M0 0 C2.442877 3.6643155 2.07844476 5.68553809 2 10 C2.33 10.66 2.66 11.32 3 12 C2.0625 14.125 2.0625 14.125 1 16 C0.4387698 14.27708363 -0.09822933 12.54626261 -0.625 10.8125 C-0.92664062 9.84957031 -1.22828125 8.88664062 -1.5390625 7.89453125 C-2.06961495 4.56284172 -1.50793169 2.96704544 0 0 Z " fill="#1F7832" transform="translate(36,10)"/>
<path d="M0 0 C0.33 0 0.66 0 1 0 C1.50690584 2.06081361 2.00524619 4.12373526 2.5 6.1875 C2.7784375 7.33605469 3.056875 8.48460938 3.34375 9.66796875 C3.91495385 12.56818829 4.13283779 15.06096385 4 18 C1.43716852 16.10573326 0.99743038 14.98808632 0.3125 11.8125 C-0.01339165 7.83662187 -0.06993884 3.98651391 0 0 Z " fill="#67B366" transform="translate(7,57)"/>
<path d="M0 0 C0.66 3.3 1.32 6.6 2 10 C1.34 9.67 0.68 9.34 0 9 C0 8.34 0 7.68 0 7 C-0.99 6.67 -1.98 6.34 -3 6 C-3 5.01 -3 4.02 -3 3 C-4.32 3.33 -5.64 3.66 -7 4 C-5.53303752 1.06607504 -3.25996861 0 0 0 Z " fill="#117531" transform="translate(50,27)"/>
<path d="M0 0 C0.66 0 1.32 0 2 0 C2 0.66 2 1.32 2 2 C2.66 2 3.32 2 4 2 C4.33 3.65 4.66 5.3 5 7 C5.66 7 6.32 7 7 7 C7.33 8.32 7.66 9.64 8 11 C7.34 11 6.68 11 6 11 C6 10.34 6 9.68 6 9 C5.01 8.67 4.02 8.34 3 8 C0 2.77777778 0 2.77777778 0 0 Z " fill="#468747" transform="translate(9,16)"/>
<path d="M0 0 C0.33 0 0.66 0 1 0 C1 2.31 1 4.62 1 7 C1.66 7 2.32 7 3 7 C3.66 8.65 4.32 10.3 5 12 C4.34 12.66 3.68 13.32 3 14 C0.19954377 10.85408067 -0.35261589 8.932936 -0.1875 4.75 C-0.16042969 3.85796875 -0.13335937 2.9659375 -0.10546875 2.046875 C-0.07066406 1.37140625 -0.03585937 0.6959375 0 0 Z " fill="#7FBF7D" transform="translate(10,51)"/>
<path d="M0 0 C1.98 1.65 3.96 3.3 6 5 C5.34 6.32 4.68 7.64 4 9 C3.34 7.68 2.68 6.36 2 5 C1.34 5 0.68 5 0 5 C0 3.35 0 1.7 0 0 Z " fill="#42A842" transform="translate(11,53)"/>
<path d="M0 0 C-0.125 1.8125 -0.125 1.8125 -1 4 C-4.0625 5.75 -4.0625 5.75 -7 7 C-7 5.35 -7 3.7 -7 2 C-4.35261084 0.5393715 -3.10551666 0 0 0 Z " fill="#91C78E" transform="translate(23,36)"/>
<path d="M0 0 C2.31 0 4.62 0 7 0 C6.01 0.66 5.02 1.32 4 2 C4.66 2.66 5.32 3.32 6 4 C5.625 6.125 5.625 6.125 5 8 C0 2.25 0 2.25 0 0 Z " fill="#B2D3B0" transform="translate(11,5)"/>
<path d="M0 0 C-0.99 0 -1.98 0 -3 0 C-3 0.66 -3 1.32 -3 2 C-2.34 2 -1.68 2 -1 2 C-0.67 3.65 -0.34 5.3 0 7 C-1.32 6.34 -2.64 5.68 -4 5 C-4 3.68 -4 2.36 -4 1 C-4.66 0.67 -5.32 0.34 -6 0 C-3.50907189 -1.24546405 -2.58919267 -0.7767578 0 0 Z M-8 1 C-6 2 -6 2 -6 2 Z " fill="#185426" transform="translate(58,26)"/>
<path d="M0 0 C0.33 0.99 0.66 1.98 1 3 C1.66 3 2.32 3 3 3 C3 5.97 3 8.94 3 12 C0.13700494 9.13700494 0.00578775 7.34147716 -0.0625 3.3125 C-0.041875 2.219375 -0.02125 1.12625 0 0 Z " fill="#BFDEBD" transform="translate(7,50)"/>
<path d="M0 0 C0.86625 0.3403125 0.86625 0.3403125 1.75 0.6875 C2.08 2.0075 2.41 3.3275 2.75 4.6875 C1.76 4.6875 0.77 4.6875 -0.25 4.6875 C-0.25 4.0275 -0.25 3.3675 -0.25 2.6875 C-2.23 2.6875 -4.21 2.6875 -6.25 2.6875 C-2.80384615 -0.38942308 -2.80384615 -0.38942308 0 0 Z " fill="#178234" transform="translate(46.25,5.3125)"/>
<path d="M0 0 C1.20628008 2.33214148 2.1654738 4.49642139 3 7 C3.66 7 4.32 7 5 7 C5.33 8.65 5.66 10.3 6 12 C1.77202073 9.09326425 1.77202073 9.09326425 0 7 C-0.375 3.1875 -0.375 3.1875 0 0 Z " fill="#5FAE5F" transform="translate(8,5)"/>
<path d="M0 0 C-0.49831724 3.68754757 -1.10067643 5.60490662 -4 8 C-4.6875 5.6875 -4.6875 5.6875 -5 3 C-3.40083326 0.79162689 -2.76966516 0 0 0 Z " fill="#C3DFC1" transform="translate(16,40)"/>
<path d="M0 0 C-2.38573379 1.89213369 -4.07175348 3.02391783 -7 4 C-7 2.68 -7 1.36 -7 0 C-4.3333581 -1.33332095 -2.83319697 -0.67102033 0 0 Z " fill="#5DB359" transform="translate(30,35)"/>
<path d="M0 0 C1.98 0.99 1.98 0.99 4 2 C4 3.98 4 5.96 4 8 C2 6.25 2 6.25 0 4 C0 2.68 0 1.36 0 0 Z " fill="#A7D2A5" transform="translate(17,13)"/>
<path d="M0 0 C1.70884005 1.62339805 3.37446717 3.29319053 5 5 C5 5.66 5 6.32 5 7 C3.68 7 2.36 7 1 7 C0.67 4.69 0.34 2.38 0 0 Z " fill="#73BC71" transform="translate(19,20)"/>
<path d="M0 0 C5.75 0.875 5.75 0.875 8 2 C7.67 3.32 7.34 4.64 7 6 C5 4.625 5 4.625 3 3 C3 2.34 3 1.68 3 1 C2.01 0.67 1.02 0.34 0 0 Z " fill="#52A353" transform="translate(18,5)"/>
<path d="M0 0 C1.65 1.32 3.3 2.64 5 4 C4.67 5.32 4.34 6.64 4 8 C3.34 7.67 2.68 7.34 2 7 C1.26924352 4.6859378 0.59861742 2.35171131 0 0 Z " fill="#EEF6ED" transform="translate(23,15)"/>
<path d="M0 0 C4.42857143 5.14285714 4.42857143 5.14285714 5 9 C2 8 2 8 0.8125 6.1875 C0 4 0 4 0 0 Z " fill="#244625" transform="translate(4,16)"/>
</svg>
